<svg height="512" viewBox="0 0 64 64" width="512" xmlns="http://www.w3.org/2000/svg"><g id="Clip"><path d="m18.443 62.385a11 11 0 0 1 -7.777-18.779l26.87-26.869a7 7 0 0 1 9.9 9.9l-17.679 17.676-4.242-4.242 17.677-17.677a1 1 0 0 0 0-1.415 1.025 1.025 0 0 0 -1.414 0l-26.87 26.87a5 5 0 1 0 7.071 7.071l31.113-31.112a9 9 0 1 0 -12.728-12.728l-21.92 21.92-4.244-4.243 21.922-21.92a15 15 0 0 1 21.212 21.213l-31.112 31.113a10.928 10.928 0 0 1 -7.779 3.222zm24.042-45.7a4.981 4.981 0 0 0 -3.535 1.462l-26.87 26.874a9 9 0 0 0 12.728 12.728l31.112-31.113a13 13 0 1 0 -18.384-18.385l-20.507 20.506 1.415 1.415 20.506-20.506a11 11 0 1 1 15.556 15.556l-31.112 31.112a7 7 0 0 1 -9.9-9.9l26.87-26.87a3 3 0 0 1 4.242 4.243l-16.263 16.264 1.414 1.414 16.264-16.263a5 5 0 0 0 -3.536-8.533z"/></g></svg>