<?xml version="1.0" encoding="iso-8859-1"?>
<!-- Generator: Adobe Illustrator 19.0.0, SVG Export Plug-In . SVG Version: 6.00 Build 0)  -->
<svg version="1.1" id="Capa_1" xmlns="http://www.w3.org/2000/svg" xmlns:xlink="http://www.w3.org/1999/xlink" x="0px" y="0px"
	 viewBox="0 0 511.999 511.999" style="enable-background:new 0 0 511.999 511.999;" xml:space="preserve">
<path style="fill:#FFFFFF;" d="M420.999,172.375v-64.386l-97.987-97.99H57.024c-11.046,0-20,8.954-20,20v452
	c0,11.046,8.954,20,20,20h343.975c11.046,0,20-8.954,20-20v-98V172.375z"/>
<path style="fill:#C8F5FF;" d="M356.678,87.989c0,11.046,8.954,20,20,20h44.321l-64.321-64.321L356.678,87.989L356.678,87.989z"/>
<path d="M400.999,511.999H57.025c-16.542,0-30-13.458-30-30v-181c0-5.523,4.477-10,10-10s10,4.477,10,10v181c0,5.514,4.486,10,10,10
	h343.974c5.514,0,10-4.486,10-10v-98c0-5.523,4.477-10,10-10s10,4.477,10,10v98C430.999,498.541,417.541,511.999,400.999,511.999z"
	/>
<path d="M460.255,187.148c-8.59-8.59-18.59-14.919-29.255-19.032v-60.127c-0.008-0.001-0.016-0.002-0.024-0.002
	c-0.001-2.601-0.993-5.157-2.905-7.069L330.083,2.93c-1.912-1.912-4.47-2.903-7.07-2.904c0-0.009-0.001-0.017-0.001-0.026H57.025
	c-16.542,0-30,13.458-30,30v186.333c0,5.523,4.477,10,10,10s10-4.477,10-10V29.999c0-5.514,4.486-10,10-10h255.987v67.99
	c0,16.542,13.458,30,30,30h67.987v45.114c-25.003-3.109-51.136,4.89-70.291,24.045l-142.521,142.52
	c-3.905,3.905-3.905,10.237,0,14.143c3.905,3.905,10.237,3.905,14.143,0L354.851,201.29c25.16-25.16,66.101-25.161,91.262,0
	c25.161,25.161,25.161,66.101,0,91.261L312.447,426.217c-15.69,15.689-41.219,15.69-56.908,0c-7.6-7.6-11.786-17.705-11.786-28.454
	c0-10.748,4.186-20.854,11.786-28.454l134.316-134.316c2.96-2.96,6.896-4.591,11.082-4.591s8.122,1.63,11.082,4.591
	c2.96,2.96,4.59,6.896,4.59,11.082s-1.63,8.122-4.591,11.082L290.965,378.209c-3.905,3.905-3.905,10.237,0,14.143
	c3.905,3.904,10.237,3.904,14.143,0L426.16,271.299c6.738-6.737,10.449-15.696,10.449-25.224s-3.711-18.487-10.448-25.224
	c-6.737-6.738-15.696-10.449-25.224-10.449s-18.486,3.711-25.224,10.448L241.397,355.166c-23.487,23.488-23.487,61.705,0,85.193
	c11.745,11.745,27.168,17.617,42.596,17.615c15.424-0.001,30.854-5.873,42.596-17.615l133.666-133.666
	C493.213,273.735,493.213,220.106,460.255,187.148z M343.012,97.989c-5.514,0-10-4.486-10-10V34.143l63.845,63.846
	C396.857,97.989,343.012,97.989,343.012,97.989z"/>
<path d="M37.028,269.209c-2.64,0-5.21-1.06-7.08-2.93c-1.86-1.86-2.92-4.44-2.92-7.07s1.06-5.21,2.92-7.07
	c1.87-1.86,4.44-2.93,7.08-2.93c2.63,0,5.21,1.07,7.07,2.93c1.86,1.86,2.93,4.44,2.93,7.07s-1.07,5.21-2.93,7.07
	C42.238,268.149,39.658,269.209,37.028,269.209z"/>
<path d="M173.436,377.448c-4.217,0-8.138-2.688-9.51-6.916l-0.198-0.611c-1.705-5.253,1.172-10.894,6.425-12.599
	s10.894,1.172,12.599,6.425l0.198,0.611c1.705,5.253-1.172,10.894-6.425,12.599C175.5,377.289,174.459,377.448,173.436,377.448z"/>
<g>
</g>
<g>
</g>
<g>
</g>
<g>
</g>
<g>
</g>
<g>
</g>
<g>
</g>
<g>
</g>
<g>
</g>
<g>
</g>
<g>
</g>
<g>
</g>
<g>
</g>
<g>
</g>
<g>
</g>
</svg>
